<svg width="32" height="33" viewBox="0 0 32 33" fill="none" xmlns="http://www.w3.org/2000/svg">
<path opacity="0.1" fill-rule="evenodd" clip-rule="evenodd" d="M0 16.1718C0 7.3352 7.16344 0.171753 16 0.171753C24.8366 0.171753 32 7.3352 32 16.1718C32 25.0083 24.8366 32.1718 16 32.1718C7.16344 32.1718 0 25.0083 0 16.1718Z" fill="white"/>
<path fill-rule="evenodd" clip-rule="evenodd" d="M22.6677 10.6714C23.4021 10.8729 23.9804 11.4667 24.1767 12.2207C24.5333 13.5872 24.5333 16.4385 24.5333 16.4385C24.5333 16.4385 24.5333 19.2897 24.1767 20.6564C23.9804 21.4104 23.4021 22.0041 22.6677 22.2057C21.3369 22.5718 16 22.5718 16 22.5718C16 22.5718 10.6631 22.5718 9.33218 22.2057C8.59783 22.0041 8.0195 21.4104 7.82323 20.6564C7.46667 19.2897 7.46667 16.4385 7.46667 16.4385C7.46667 16.4385 7.46667 13.5872 7.82323 12.2207C8.0195 11.4667 8.59783 10.8729 9.33218 10.6714C10.6631 10.3052 16 10.3052 16 10.3052C16 10.3052 21.3369 10.3052 22.6677 10.6714ZM14.4 14.0385V19.3718L18.6667 16.7052L14.4 14.0385Z" fill="white"/>
</svg>
