<svg width="32" height="33" viewBox="0 0 32 33" fill="none" xmlns="http://www.w3.org/2000/svg">
<path opacity="0.1" fill-rule="evenodd" clip-rule="evenodd" d="M0 16.1718C0 7.3352 7.16344 0.171753 16 0.171753C24.8366 0.171753 32 7.3352 32 16.1718C32 25.0083 24.8366 32.1718 16 32.1718C7.16344 32.1718 0 25.0083 0 16.1718Z" fill="white"/>
<path fill-rule="evenodd" clip-rule="evenodd" d="M24.5333 16.1599C24.5333 16.737 24.4746 17.3133 24.3592 17.8751C24.2467 18.4235 24.08 18.9619 23.8617 19.4766C23.6483 19.9822 23.3837 20.4694 23.0745 20.9237C22.77 21.3752 22.4191 21.7988 22.0337 22.1849C21.6474 22.5693 21.2224 22.9192 20.7711 23.2251C20.3152 23.5322 19.8273 23.7964 19.3215 24.0107C18.806 24.2279 18.2664 24.3943 17.7184 24.5066C17.1559 24.6223 16.5776 24.6814 15.9996 24.6814C15.4213 24.6814 14.8429 24.6223 14.2812 24.5066C13.7324 24.3943 13.1928 24.2279 12.6778 24.0107C12.1719 23.7964 11.6836 23.5322 11.2277 23.2251C10.7764 22.9193 10.3514 22.5693 9.96599 22.1849C9.58015 21.7988 9.22928 21.3752 8.92427 20.9237C8.61675 20.4694 8.35172 19.9821 8.13755 19.4766C7.91918 18.9619 7.75211 18.4234 7.63919 17.8751C7.52503 17.3133 7.46667 16.737 7.46667 16.1599C7.46667 15.5824 7.52499 15.0049 7.63922 14.4444C7.75215 13.896 7.91922 13.3567 8.13759 12.8429C8.35175 12.3369 8.61678 11.8493 8.9243 11.3949C9.22931 10.943 9.58018 10.5203 9.96602 10.1337C10.3515 9.74922 10.7765 9.40015 11.2278 9.09475C11.6836 8.78641 12.172 8.52223 12.6778 8.3075C13.1929 8.08985 13.7324 7.92302 14.2812 7.81153C14.8429 7.69669 15.4213 7.63843 15.9997 7.63843C16.5776 7.63843 17.1559 7.69669 17.7185 7.81153C18.2664 7.92305 18.806 8.08988 19.3215 8.3075C19.8273 8.52219 20.3153 8.78641 20.7711 9.09475C21.2224 9.40015 21.6475 9.74922 22.0337 10.1337C22.4191 10.5203 22.77 10.943 23.0746 11.3949C23.3837 11.8493 23.6483 12.3369 23.8617 12.8429C24.08 13.3567 24.2467 13.896 24.3592 14.4444C24.4746 15.0049 24.5333 15.5824 24.5333 16.1599ZM12.8903 9.57781C10.8581 10.5361 9.34131 12.406 8.86836 14.6595C9.06048 14.6612 12.0973 14.6995 15.5962 13.7711C14.3349 11.5334 12.9874 9.70725 12.8903 9.57781ZM16.2 14.8917C12.4477 16.0134 8.84711 15.9327 8.71795 15.9278C8.71585 16.006 8.71211 16.0817 8.71211 16.1599C8.71211 18.0294 9.41839 19.7337 10.5793 21.0223C10.5768 21.0186 12.5711 17.4856 16.5038 16.2157C16.5988 16.1841 16.6955 16.1558 16.7913 16.1283C16.6084 15.7147 16.4087 15.3003 16.2 14.8917ZM20.8124 10.6983C19.5293 9.56864 17.8447 8.88339 15.9996 8.88339C15.4075 8.88339 14.8329 8.95496 14.2824 9.08727C14.3916 9.23375 15.7604 11.047 17.0067 13.3322C19.7565 12.3028 20.7944 10.725 20.8124 10.6983ZM17.288 17.3341C17.2718 17.3395 17.2556 17.3441 17.2397 17.3499C12.94 18.8467 11.5358 21.8632 11.5206 21.8961C12.7578 22.8568 14.3096 23.4365 15.9996 23.4365C17.0088 23.4365 17.9701 23.2313 18.8448 22.8598C18.7368 22.224 18.3135 19.9954 17.288 17.3341ZM20.0719 22.1949C21.7082 21.0922 22.8703 19.3414 23.1945 17.3133C23.0445 17.265 21.0057 16.6205 18.6535 16.9971C19.6093 19.6201 19.9977 21.7563 20.0719 22.1949ZM17.5676 14.4165C17.7368 14.7635 17.9006 15.1167 18.0518 15.4717C18.1056 15.599 18.1581 15.7239 18.2093 15.8487C20.7128 15.5341 23.1792 16.0634 23.2846 16.085C23.2679 14.3599 22.65 12.7767 21.6275 11.5372C21.6137 11.5567 20.4449 13.2431 17.5676 14.4165Z" fill="white"/>
</svg>
