<svg width="32" height="33" viewBox="0 0 32 33" fill="none" xmlns="http://www.w3.org/2000/svg">
<path opacity="0.1" fill-rule="evenodd" clip-rule="evenodd" d="M0 16.1718C0 7.3352 7.16344 0.171753 16 0.171753C24.8366 0.171753 32 7.3352 32 16.1718C32 25.0083 24.8366 32.1718 16 32.1718C7.16344 32.1718 0 25.0083 0 16.1718Z" fill="white"/>
<path fill-rule="evenodd" clip-rule="evenodd" d="M15.5208 13.1767L15.5544 13.7304L14.9948 13.6626C12.9579 13.4027 11.1784 12.5214 9.66756 11.0413L8.92891 10.3069L8.73865 10.8492C8.33575 12.0582 8.59316 13.3349 9.43253 14.1936C9.8802 14.6682 9.77948 14.7359 9.00725 14.4535C8.73865 14.3631 8.50363 14.2953 8.48124 14.3292C8.4029 14.4083 8.6715 15.4365 8.88414 15.8432C9.17513 16.4082 9.76828 16.9618 10.4174 17.2895L10.9658 17.5493L10.3167 17.5606C9.68994 17.5606 9.66756 17.5719 9.73471 17.8092C9.95854 18.5436 10.8427 19.3232 11.8276 19.6622L12.5214 19.8995L11.9171 20.261C11.0218 20.7808 9.96973 21.0745 8.91772 21.0971C8.41409 21.1084 8 21.1536 8 21.1875C8 21.3005 9.36538 21.9332 10.16 22.1818C12.5438 22.9162 15.3753 22.5998 17.5017 21.3457C19.0126 20.4531 20.5235 18.6792 21.2286 16.9618C21.6091 16.0466 21.9896 14.3744 21.9896 13.5722C21.9896 13.0524 22.0232 12.9847 22.6499 12.3632C23.0192 12.0017 23.3662 11.6062 23.4333 11.4932C23.5452 11.2785 23.534 11.2785 22.9633 11.4706C22.012 11.8096 21.8777 11.7644 22.3477 11.256C22.6947 10.8944 23.1088 10.2391 23.1088 10.047C23.1088 10.0131 22.9409 10.0696 22.7506 10.1713C22.5492 10.2843 22.1015 10.4537 21.7658 10.5554L21.1614 10.7475L20.613 10.3747C20.3108 10.1713 19.8856 9.9453 19.6617 9.87751C19.0909 9.71933 18.218 9.74193 17.7032 9.9227C16.3042 10.4311 15.4201 11.7418 15.5208 13.1767Z" fill="white"/>
</svg>
