<svg width="32" height="33" viewBox="0 0 32 33" fill="none" xmlns="http://www.w3.org/2000/svg">
<path opacity="0.1" fill-rule="evenodd" clip-rule="evenodd" d="M0 16.1718C0 7.3352 7.16344 0.171753 16 0.171753C24.8366 0.171753 32 7.3352 32 16.1718C32 25.0083 24.8366 32.1718 16 32.1718C7.16344 32.1718 0 25.0083 0 16.1718Z" fill="white"/>
<path fill-rule="evenodd" clip-rule="evenodd" d="M16.0008 7.63843C13.6833 7.63843 13.3924 7.64856 12.4822 7.68998C11.5737 7.73158 10.9536 7.87541 10.4111 8.08643C9.84981 8.30439 9.37372 8.59595 8.8994 9.07044C8.42473 9.54476 8.13317 10.0209 7.9145 10.5819C7.70294 11.1247 7.55894 11.745 7.51805 12.6531C7.47734 13.5633 7.46667 13.8543 7.46667 16.1718C7.46667 18.4894 7.47699 18.7793 7.51823 19.6896C7.56001 20.598 7.70383 21.2181 7.91468 21.7607C8.13282 22.322 8.42437 22.7981 8.89887 23.2724C9.37301 23.747 9.8491 24.0393 10.41 24.2573C10.9529 24.4683 11.5732 24.6121 12.4815 24.6537C13.3917 24.6951 13.6824 24.7053 15.9997 24.7053C18.3175 24.7053 18.6074 24.6951 19.5176 24.6537C20.4261 24.6121 21.0469 24.4683 21.5898 24.2573C22.1509 24.0393 22.6263 23.747 23.1004 23.2724C23.5751 22.7981 23.8667 22.322 24.0853 21.7609C24.2951 21.2181 24.4391 20.5979 24.4818 19.6898C24.5227 18.7795 24.5333 18.4894 24.5333 16.1718C24.5333 13.8543 24.5227 13.5635 24.4818 12.6532C24.4391 11.7448 24.2951 11.1247 24.0853 10.5821C23.8667 10.0209 23.5751 9.54476 23.1004 9.07044C22.6258 8.59577 22.1511 8.30421 21.5893 8.08643C21.0453 7.87541 20.4249 7.73158 19.5164 7.68998C18.6062 7.64856 18.3164 7.63843 15.9981 7.63843H16.0008ZM15.2353 9.1762C15.4625 9.17584 15.716 9.1762 16.0008 9.1762C18.2792 9.1762 18.5492 9.18438 19.449 9.22526C20.281 9.26331 20.7326 9.40233 21.0334 9.51913C21.4316 9.6738 21.7155 9.85869 22.014 10.1574C22.3127 10.456 22.4976 10.7405 22.6526 11.1387C22.7694 11.4392 22.9086 11.8907 22.9464 12.7227C22.9873 13.6223 22.9962 13.8925 22.9962 16.1699C22.9962 18.4472 22.9873 18.7175 22.9464 19.617C22.9084 20.449 22.7694 20.9006 22.6526 21.201C22.4979 21.5993 22.3127 21.8828 22.014 22.1813C21.7153 22.48 21.4318 22.6649 21.0334 22.8195C20.7329 22.9369 20.281 23.0755 19.449 23.1136C18.5494 23.1545 18.2792 23.1634 16.0008 23.1634C13.7222 23.1634 13.4521 23.1545 12.5526 23.1136C11.7205 23.0752 11.269 22.9362 10.968 22.8194C10.5698 22.6647 10.2853 22.4798 9.98666 22.1811C9.68799 21.8825 9.5031 21.5987 9.34808 21.2003C9.23128 20.8999 9.09208 20.4483 9.05421 19.6163C9.01332 18.7167 9.00514 18.4465 9.00514 16.1677C9.00514 13.889 9.01332 13.6202 9.05421 12.7206C9.09226 11.8886 9.23128 11.437 9.34808 11.1362C9.50275 10.738 9.68799 10.4535 9.98666 10.1549C10.2853 9.8562 10.5698 9.67131 10.968 9.51629C11.2688 9.39896 11.7205 9.26029 12.5526 9.22206C13.3398 9.18651 13.6448 9.17584 15.2353 9.17406V9.1762ZM20.5558 10.5931C19.9905 10.5931 19.5318 11.0512 19.5318 11.6168C19.5318 12.1821 19.9905 12.6408 20.5558 12.6408C21.1212 12.6408 21.5799 12.1821 21.5799 11.6168C21.5799 11.0514 21.1212 10.5931 20.5558 10.5931ZM16.0008 11.7896C13.5807 11.7896 11.6186 13.7517 11.6186 16.1718C11.6186 18.5919 13.5807 20.5532 16.0008 20.5532C18.4209 20.5532 20.3824 18.5919 20.3824 16.1718C20.3824 13.7517 18.4209 11.7896 16.0008 11.7896ZM16.0008 13.3274C17.5717 13.3274 18.8453 14.6008 18.8453 16.1718C18.8453 17.7427 17.5717 19.0163 16.0008 19.0163C14.4298 19.0163 13.1563 17.7427 13.1563 16.1718C13.1563 14.6008 14.4298 13.3274 16.0008 13.3274Z" fill="white"/>
</svg>
