<svg width="287" height="67" viewBox="0 0 287 67" fill="none" xmlns="http://www.w3.org/2000/svg">
<path d="M37.1757 29.6424C37.1757 34.1903 35.6776 38.121 32.6814 41.4344L36.2964 45.1377L32.3395 48.6948L28.5779 44.8453C25.712 46.5021 22.6669 47.3304 19.4428 47.3304C14.5251 47.3304 10.3402 45.625 6.88805 42.2141C3.43591 38.7707 1.70984 34.5801 1.70984 29.6424C1.70984 24.7047 3.43591 20.5304 6.88805 17.1195C10.3402 13.6761 14.5251 11.9544 19.4428 11.9544C24.3604 11.9544 28.5454 13.6761 31.9975 17.1195C35.4496 20.5304 37.1757 24.7047 37.1757 29.6424ZM19.4428 41.873C21.2665 41.873 22.9763 41.4994 24.5721 40.7523L18.3192 34.369L22.2761 30.8119L28.8222 37.4875C30.646 35.2461 31.5578 32.631 31.5578 29.6424C31.5578 26.1666 30.3854 23.2592 28.0406 20.9203C25.6957 18.5813 22.8298 17.4119 19.4428 17.4119C16.0558 17.4119 13.1898 18.5813 10.845 20.9203C8.50014 23.2592 7.32771 26.1666 7.32771 29.6424C7.32771 33.1183 8.50014 36.0257 10.845 38.3646C13.1898 40.7035 16.0558 41.873 19.4428 41.873ZM64.1865 44.1144C61.7765 46.2584 58.6663 47.3304 54.8559 47.3304C51.0455 47.3304 47.9354 46.2584 45.5254 44.1144C43.1154 41.938 41.9104 39.0306 41.9104 35.3923V12.5879H47.5283V35.0512C47.5283 37.1302 48.1308 38.7869 49.3358 40.0213C50.5733 41.2558 52.4134 41.873 54.8559 41.873C57.2985 41.873 59.1223 41.2558 60.3272 40.0213C61.5648 38.7869 62.1836 37.1302 62.1836 35.0512V12.5879H67.8015V35.3923C67.8015 39.0306 66.5965 41.938 64.1865 44.1144ZM74.2632 12.5879H79.8811V46.697H74.2632V12.5879ZM102.884 47.3304C97.7386 47.3304 93.4723 45.6412 90.0853 42.2628C86.6983 38.8519 85.0048 34.6451 85.0048 29.6424C85.0048 24.6398 86.6983 20.4492 90.0853 17.0708C93.4723 13.6599 97.7386 11.9544 102.884 11.9544C105.978 11.9544 108.828 12.6853 111.433 14.1472C114.071 15.609 116.123 17.5906 117.588 20.0919L112.703 22.9181C111.791 21.2289 110.456 19.897 108.698 18.9224C106.971 17.9154 105.034 17.4119 102.884 17.4119C99.2367 17.4119 96.2731 18.5651 93.9934 20.8715C91.7462 23.178 90.6226 26.1016 90.6226 29.6424C90.6226 33.1833 91.7462 36.1069 93.9934 38.4133C96.2731 40.7198 99.2367 41.873 102.884 41.873C105.034 41.873 106.988 41.3857 108.746 40.4112C110.505 39.4041 111.824 38.056 112.703 36.3668L117.588 39.1443C116.155 41.6456 114.12 43.6434 111.482 45.1377C108.877 46.5995 106.011 47.3304 102.884 47.3304ZM148.049 46.697H141.356L127.873 30.4708V46.697H122.256V12.5879H127.873V27.8883L140.868 12.5879H147.56L133.736 29.2039L148.049 46.697ZM171.719 17.9479H157.308V27.4984H171.231V32.8584H157.308V46.697H151.69V12.5879H171.719V17.9479ZM205.553 42.2141C202.133 45.625 197.948 47.3304 192.998 47.3304C188.047 47.3304 183.846 45.625 180.394 42.2141C176.974 38.7707 175.265 34.5801 175.265 29.6424C175.265 24.7047 176.974 20.5304 180.394 17.1195C183.846 13.6761 188.047 11.9544 192.998 11.9544C197.948 11.9544 202.133 13.6761 205.553 17.1195C209.005 20.5304 210.731 24.7047 210.731 29.6424C210.731 34.5801 209.005 38.7707 205.553 42.2141ZM184.351 38.4133C186.696 40.7198 189.578 41.873 192.998 41.873C196.417 41.873 199.283 40.7198 201.595 38.4133C203.941 36.0744 205.113 33.1508 205.113 29.6424C205.113 26.1341 203.941 23.2267 201.595 20.9203C199.283 18.5813 196.417 17.4119 192.998 17.4119C189.578 17.4119 186.696 18.5813 184.351 20.9203C182.039 23.2267 180.883 26.1341 180.883 29.6424C180.883 33.1508 182.039 36.0744 184.351 38.4133ZM244.432 42.2141C241.013 45.625 236.828 47.3304 231.878 47.3304C226.927 47.3304 222.726 45.625 219.274 42.2141C215.855 38.7707 214.145 34.5801 214.145 29.6424C214.145 24.7047 215.855 20.5304 219.274 17.1195C222.726 13.6761 226.927 11.9544 231.878 11.9544C236.828 11.9544 241.013 13.6761 244.432 17.1195C247.885 20.5304 249.611 24.7047 249.611 29.6424C249.611 34.5801 247.885 38.7707 244.432 42.2141ZM223.231 38.4133C225.576 40.7198 228.458 41.873 231.878 41.873C235.297 41.873 238.163 40.7198 240.476 38.4133C242.82 36.0744 243.993 33.1508 243.993 29.6424C243.993 26.1341 242.82 23.2267 240.476 20.9203C238.163 18.5813 235.297 17.4119 231.878 17.4119C228.458 17.4119 225.576 18.5813 223.231 20.9203C220.919 23.2267 219.763 26.1341 219.763 29.6424C219.763 33.1508 220.919 36.0744 223.231 38.4133ZM268.17 12.5879C272.86 12.5879 276.752 14.2284 279.845 17.5093C282.972 20.7903 284.535 24.8347 284.535 29.6424C284.535 34.4177 282.972 38.4621 279.845 41.7755C276.752 45.0565 272.86 46.697 268.17 46.697H254.736V12.5879H268.17ZM268.17 41.337C271.394 41.337 274.016 40.2325 276.035 38.0235C278.087 35.8146 279.113 33.0209 279.113 29.6424C279.113 26.2315 278.087 23.4378 276.035 21.2613C274.016 19.0524 271.394 17.9479 268.17 17.9479H260.354V41.337H268.17Z" fill="#00A000"/>
<path d="M287 62.9394H0V67H287V62.9394Z" fill="#00A000"/>
</svg>
