<svg width="545" height="363" viewBox="0 0 545 363" fill="none" xmlns="http://www.w3.org/2000/svg">
<path d="M93.2927 8.72809L93.7508 17.6093L117.42 18.3749C132.08 18.8343 142.312 19.9061 144.45 21.1311C152.543 25.7249 152.543 25.7249 152.543 82.687V135.515L135.44 152.665L118.184 169.968L135.44 187.271L152.543 204.421V243.467C152.543 286.189 151.321 294.917 143.686 310.536C138.189 321.867 127.194 333.045 116.351 338.098C109.022 341.467 104.746 342.232 92.0711 342.692C74.9679 343.457 63.6676 341.007 52.3672 334.423C44.2738 329.676 32.3626 316.967 29.4612 310.076C26.4071 302.42 26.7125 290.476 30.2247 286.189L32.9735 282.667L45.3427 285.576C57.1012 288.179 58.0174 288.179 64.5838 285.73C84.5884 278.073 91.3075 250.358 77.7166 231.524C68.0961 218.049 46.1063 213.302 29.6139 221.111C19.688 225.705 8.54034 238.108 4.26455 249.286C0.141458 260.311 -1.23291 279.911 1.21041 292.773C7.47139 324.776 33.5843 351.113 67.9434 359.842C84.283 364.129 110.396 363.976 128.11 359.842C166.592 350.501 194.079 324.929 202.173 290.783C203.853 283.433 204.463 271.489 204.463 242.702V204.421L221.567 187.271L238.822 169.968L221.567 152.665L204.463 135.515V84.5245C204.463 27.2561 204.769 25.4186 214.237 20.8249C219.123 18.528 224.468 18.2218 259.285 18.6812C298.836 19.1405 298.836 19.1405 302.807 22.8155L306.777 26.4905V177.165C306.777 282.208 306.319 328.757 305.097 331.054C302.043 336.72 294.561 338.404 271.655 338.404H250.276V347.592V356.779H335.791H421.307V347.592V338.404L398.859 338.251C373.815 338.251 367.554 336.873 362.668 330.289C359.461 326.001 359.461 324.317 359.003 253.114L358.545 180.38L381.145 180.993C407.411 181.911 414.436 183.902 425.125 193.243C436.731 203.502 443.45 220.039 445.588 243.927L446.504 254.952L455.361 255.411L464.065 255.87V174.561V93.4057H454.903H445.74V100.603C445.588 118.824 438.105 137.812 426.652 148.377C414.588 159.555 408.785 161.393 381.909 162.005L358.545 162.618L359.003 94.1713L359.461 25.7249L363.737 22.0499L368.013 18.3749H406.953C450.932 18.3749 462.844 19.9061 479.183 28.0217C503.616 39.9654 516.291 63.3934 526.675 115.149L528.355 124.031H536.754H545V117.446C545 113.924 543.931 87.8932 542.709 59.7184C541.488 31.5435 540.419 6.58435 540.419 4.13434V0H316.703H92.8346L93.2927 8.72809Z" fill="#B3D9FF"/>
</svg>
