<svg width="347" height="51" viewBox="0 0 347 51" fill="none" xmlns="http://www.w3.org/2000/svg">
<g clip-path="url(#clip0_1_65)">
<path d="M42.1958 27.6044L30.0873 47.0096L17.9789 27.6044H42.1958ZM45.4396 25.8701H14.7219L30.0873 50.4419L45.4396 25.8701Z" fill="white"/>
<path d="M63.2479 3.46868L75.3564 22.8738H51.1395L63.2479 3.46868ZM63.2479 0L47.8826 24.5718H78.6133L63.2479 0Z" fill="white"/>
<path d="M0 0L12.8834 21.7338L26.9617 0.545743L0 0Z" fill="#4CAF4F"/>
<path d="M30.0876 1.90378L43.6016 23.5164H16.5477L30.0876 1.90378Z" fill="#4CAF4F"/>
<path d="M47.0816 28.2351L60.6084 50.4421H32.9113L46.6612 28.2351H47.0816Z" fill="#4CAF4F"/>
<path d="M50.01 26.8887L63.248 48.756L76.6696 26.8887H50.01Z" fill="#4CAF4F"/>
<path d="M134.839 3.50769V46.307H126.486L106.587 19.3693H106.252V46.307H96.582V3.50769H105.069L124.811 30.4244H125.213V3.50769H134.839Z" fill="white"/>
<path d="M158.283 46.9339C154.755 46.9339 151.718 46.2652 149.172 44.9276C146.64 43.5763 144.69 41.6675 143.32 39.2017C141.95 36.7217 141.265 33.789 141.265 30.4035C141.265 27.1016 141.95 24.2038 143.32 21.7099C144.69 19.2161 146.618 17.2725 149.104 15.8794C151.606 14.4862 154.539 13.7896 157.904 13.7896C160.167 13.7896 162.274 14.1309 164.224 14.8136C166.189 15.4823 167.902 16.4924 169.361 17.8437C170.835 19.1952 171.981 20.8949 172.8 22.9429C173.619 24.9769 174.028 27.3593 174.028 30.09V32.5351H145.062V27.0181H165.073C165.073 25.7363 164.775 24.6009 164.179 23.6116C163.584 22.6224 162.758 21.8493 161.7 21.292C160.658 20.7208 159.445 20.4352 158.06 20.4352C156.616 20.4352 155.335 20.7487 154.219 21.3756C153.117 21.9885 152.253 22.8176 151.628 23.8624C151.003 24.8934 150.683 26.0428 150.668 27.3107V32.556C150.668 34.1443 150.98 35.5166 151.606 36.6729C152.246 37.8293 153.147 38.7209 154.308 39.3479C155.469 39.9748 156.847 40.2883 158.44 40.2883C159.497 40.2883 160.465 40.1489 161.343 39.8703C162.222 39.5916 162.973 39.1738 163.599 38.6165C164.224 38.0591 164.701 37.3765 165.028 36.5685L173.827 37.1118C173.381 39.0901 172.465 40.8177 171.08 42.2945C169.711 43.7573 167.939 44.8999 165.765 45.7218C163.606 46.5299 161.112 46.9339 158.283 46.9339Z" fill="white"/>
<path d="M187.574 14.2075L193.871 25.4298L200.326 14.2075H210.086L200.146 30.2573L210.353 46.307H200.639L193.871 35.2101L187.216 46.307H177.389L187.574 30.2573L177.747 14.2075H187.574Z" fill="white"/>
<path d="M230.006 46.9339C226.493 46.9339 223.47 46.2373 220.939 44.8441C218.423 43.4369 216.488 41.4865 215.133 38.9926C213.794 36.4988 213.123 33.6287 213.123 30.3826C213.123 27.0946 213.801 24.2107 215.154 21.7308C216.524 19.237 218.468 17.2934 220.984 15.9003C223.501 14.4931 226.493 13.7896 229.963 13.7896C232.955 13.7896 235.575 14.2981 237.824 15.3151C240.071 16.3322 241.852 17.7602 243.161 19.5991C244.471 21.4382 245.193 23.5977 245.327 26.0777H236.349C236.096 24.4754 235.426 23.1866 234.339 22.2115C233.267 21.2223 231.861 20.7278 230.119 20.7278C228.644 20.7278 227.356 21.1038 226.255 21.8562C225.168 22.5945 224.32 23.6744 223.71 25.0954C223.099 26.5164 222.794 28.237 222.794 30.2573C222.794 32.3053 223.09 34.0467 223.686 35.4817C224.296 36.9167 225.154 38.0105 226.255 38.7627C227.356 39.5151 228.644 39.8912 230.119 39.8912C231.205 39.8912 232.181 39.6822 233.044 39.2642C233.923 38.8464 234.645 38.2403 235.21 37.4462C235.791 36.6381 236.171 35.6699 236.349 34.5413H245.327C245.178 36.9934 244.464 39.1529 243.183 41.0198C241.917 42.8726 240.169 44.3215 237.935 45.3665C235.702 46.4114 233.059 46.9339 230.006 46.9339Z" fill="white"/>
<path d="M267.052 46.9339C263.524 46.9339 260.486 46.2652 257.941 44.9276C255.408 43.5763 253.459 41.6675 252.089 39.2017C250.719 36.7217 250.034 33.789 250.034 30.4035C250.034 27.1016 250.719 24.2038 252.089 21.7099C253.459 19.2161 255.387 17.2725 257.874 15.8794C260.375 14.4862 263.308 13.7896 266.672 13.7896C268.936 13.7896 271.043 14.1309 272.993 14.8136C274.958 15.4823 276.67 16.4924 278.131 17.8437C279.604 19.1952 280.75 20.8949 281.57 22.9429C282.387 24.9769 282.798 27.3593 282.798 30.09V32.5351H253.831V27.0181H273.841C273.841 25.7363 273.543 24.6009 272.949 23.6116C272.353 22.6224 271.527 21.8493 270.469 21.292C269.426 20.7208 268.213 20.4352 266.829 20.4352C265.384 20.4352 264.105 20.7487 262.988 21.3756C261.885 21.9885 261.022 22.8176 260.397 23.8624C259.772 24.8934 259.451 26.0428 259.436 27.3107V32.556C259.436 34.1443 259.749 35.5166 260.375 36.6729C261.015 37.8293 261.916 38.7209 263.077 39.3479C264.238 39.9748 265.615 40.2883 267.208 40.2883C268.266 40.2883 269.234 40.1489 270.111 39.8703C270.991 39.5916 271.743 39.1738 272.368 38.6165C272.993 38.0591 273.469 37.3765 273.798 36.5685L282.596 37.1118C282.149 39.0901 281.234 40.8177 279.849 42.2945C278.479 43.7573 276.708 44.8999 274.533 45.7218C272.375 46.5299 269.881 46.9339 267.052 46.9339Z" fill="white"/>
<path d="M298.52 27.7494V46.307H289.006V14.2075H298.073V19.871H298.475C299.234 18.004 300.507 16.5272 302.295 15.4405C304.081 14.3399 306.247 13.7896 308.794 13.7896C311.175 13.7896 313.252 14.2772 315.025 15.2524C316.796 16.2277 318.174 17.6208 319.156 19.432C320.139 21.2293 320.63 23.3748 320.63 25.8686V46.307H311.116V27.4569C311.13 25.4925 310.594 23.96 309.508 22.8594C308.421 21.7447 306.924 21.1874 305.018 21.1874C303.738 21.1874 302.608 21.4452 301.625 21.9608C300.656 22.4762 299.897 23.2285 299.347 24.2177C298.811 25.193 298.534 26.3702 298.52 27.7494Z" fill="white"/>
<path d="M346.375 14.2075V20.8949H325.717V14.2075H346.375ZM330.406 6.51703H339.92V36.4431C339.92 37.265 340.055 37.9059 340.322 38.3656C340.591 38.8115 340.963 39.125 341.439 39.306C341.929 39.4873 342.496 39.5777 343.136 39.5777C343.583 39.5777 344.03 39.543 344.477 39.4733C344.923 39.3897 345.265 39.327 345.503 39.2851L347 45.9099C346.524 46.0493 345.854 46.2094 344.991 46.3905C344.126 46.5856 343.078 46.7039 341.84 46.7458C339.548 46.8294 337.538 46.5438 335.811 45.889C334.099 45.2341 332.766 44.2172 331.814 42.8378C330.86 41.4586 330.391 39.7171 330.406 37.6134V6.51703Z" fill="white"/>
</g>
<defs>
<clipPath id="clip0_1_65">
<rect width="347" height="51" fill="white"/>
</clipPath>
</defs>
</svg>
