<svg width="140" height="19" viewBox="0 0 140 19" fill="none" xmlns="http://www.w3.org/2000/svg">
<path d="M18.264 9.32949C18.264 11.5695 17.528 13.5055 16.056 15.1375L17.832 16.9615L15.888 18.7135L14.04 16.8175C12.632 17.6335 11.136 18.0415 9.552 18.0415C7.136 18.0415 5.08 17.2015 3.384 15.5215C1.688 13.8255 0.84 11.7615 0.84 9.32949C0.84 6.89749 1.688 4.84149 3.384 3.16149C5.08 1.46549 7.136 0.617491 9.552 0.617491C11.968 0.617491 14.024 1.46549 15.72 3.16149C17.416 4.84149 18.264 6.89749 18.264 9.32949ZM9.552 15.3535C10.448 15.3535 11.288 15.1695 12.072 14.8015L9 11.6575L10.944 9.90549L14.16 13.1935C15.056 12.0895 15.504 10.8015 15.504 9.32949C15.504 7.61749 14.928 6.18549 13.776 5.03349C12.624 3.88149 11.216 3.30549 9.552 3.30549C7.888 3.30549 6.48 3.88149 5.328 5.03349C4.176 6.18549 3.6 7.61749 3.6 9.32949C3.6 11.0415 4.176 12.4735 5.328 13.6255C6.48 14.7775 7.888 15.3535 9.552 15.3535ZM31.5341 16.4575C30.3501 17.5135 28.8221 18.0415 26.9501 18.0415C25.0781 18.0415 23.5501 17.5135 22.3661 16.4575C21.1821 15.3855 20.5901 13.9535 20.5901 12.1615V0.929491H23.3501V11.9935C23.3501 13.0175 23.6461 13.8335 24.2381 14.4415C24.8461 15.0495 25.7501 15.3535 26.9501 15.3535C28.1501 15.3535 29.0461 15.0495 29.6381 14.4415C30.2461 13.8335 30.5501 13.0175 30.5501 11.9935V0.929491H33.3101V12.1615C33.3101 13.9535 32.7181 15.3855 31.5341 16.4575ZM36.4847 0.929491H39.2447V17.7295H36.4847V0.929491ZM50.5459 18.0415C48.0179 18.0415 45.9219 17.2095 44.2579 15.5455C42.5939 13.8655 41.7619 11.7935 41.7619 9.32949C41.7619 6.86549 42.5939 4.80149 44.2579 3.13749C45.9219 1.45749 48.0179 0.617491 50.5459 0.617491C52.0659 0.617491 53.4659 0.977491 54.7459 1.69749C56.0419 2.41749 57.0499 3.39349 57.7699 4.62549L55.3699 6.01749C54.9219 5.18549 54.2659 4.52949 53.4019 4.04949C52.5539 3.55349 51.6019 3.30549 50.5459 3.30549C48.7539 3.30549 47.2979 3.87349 46.1779 5.00949C45.0739 6.14549 44.5219 7.58549 44.5219 9.32949C44.5219 11.0735 45.0739 12.5135 46.1779 13.6495C47.2979 14.7855 48.7539 15.3535 50.5459 15.3535C51.6019 15.3535 52.5619 15.1135 53.4259 14.6335C54.2899 14.1375 54.9379 13.4735 55.3699 12.6415L57.7699 14.0095C57.0659 15.2415 56.0659 16.2255 54.7699 16.9615C53.4899 17.6815 52.0819 18.0415 50.5459 18.0415ZM72.7348 17.7295H69.4468L62.8228 9.73749V17.7295H60.0628V0.929491H62.8228V8.46549L69.2068 0.929491H72.4948L65.7028 9.11349L72.7348 17.7295ZM84.3638 3.56949H77.2838V8.27349H84.1238V10.9135H77.2838V17.7295H74.5238V0.929491H84.3638V3.56949ZM100.986 15.5215C99.3056 17.2015 97.2496 18.0415 94.8176 18.0415C92.3856 18.0415 90.3216 17.2015 88.6256 15.5215C86.9456 13.8255 86.1056 11.7615 86.1056 9.32949C86.1056 6.89749 86.9456 4.84149 88.6256 3.16149C90.3216 1.46549 92.3856 0.617491 94.8176 0.617491C97.2496 0.617491 99.3056 1.46549 100.986 3.16149C102.682 4.84149 103.53 6.89749 103.53 9.32949C103.53 11.7615 102.682 13.8255 100.986 15.5215ZM90.5696 13.6495C91.7216 14.7855 93.1376 15.3535 94.8176 15.3535C96.4976 15.3535 97.9056 14.7855 99.0416 13.6495C100.194 12.4975 100.77 11.0575 100.77 9.32949C100.77 7.60149 100.194 6.16949 99.0416 5.03349C97.9056 3.88149 96.4976 3.30549 94.8176 3.30549C93.1376 3.30549 91.7216 3.88149 90.5696 5.03349C89.4336 6.16949 88.8656 7.60149 88.8656 9.32949C88.8656 11.0575 89.4336 12.4975 90.5696 13.6495ZM120.087 15.5215C118.407 17.2015 116.351 18.0415 113.919 18.0415C111.487 18.0415 109.423 17.2015 107.727 15.5215C106.047 13.8255 105.207 11.7615 105.207 9.32949C105.207 6.89749 106.047 4.84149 107.727 3.16149C109.423 1.46549 111.487 0.617491 113.919 0.617491C116.351 0.617491 118.407 1.46549 120.087 3.16149C121.783 4.84149 122.631 6.89749 122.631 9.32949C122.631 11.7615 121.783 13.8255 120.087 15.5215ZM109.671 13.6495C110.823 14.7855 112.239 15.3535 113.919 15.3535C115.599 15.3535 117.007 14.7855 118.143 13.6495C119.295 12.4975 119.871 11.0575 119.871 9.32949C119.871 7.60149 119.295 6.16949 118.143 5.03349C117.007 3.88149 115.599 3.30549 113.919 3.30549C112.239 3.30549 110.823 3.88149 109.671 5.03349C108.535 6.16949 107.967 7.60149 107.967 9.32949C107.967 11.0575 108.535 12.4975 109.671 13.6495ZM131.749 0.929491C134.053 0.929491 135.965 1.73749 137.485 3.35349C139.021 4.96949 139.789 6.96149 139.789 9.32949C139.789 11.6815 139.021 13.6735 137.485 15.3055C135.965 16.9215 134.053 17.7295 131.749 17.7295H125.149V0.929491H131.749ZM131.749 15.0895C133.333 15.0895 134.621 14.5455 135.613 13.4575C136.621 12.3695 137.125 10.9935 137.125 9.32949C137.125 7.64949 136.621 6.27349 135.613 5.20149C134.621 4.11349 133.333 3.56949 131.749 3.56949H127.909V15.0895H131.749Z" fill="white"/>
</svg>
